<svg width="40" height="40" viewBox="0 0 40 40" fill="none" xmlns="http://www.w3.org/2000/svg">
  <rect width="40" height="40" rx="8" fill="#3b82f6"/>
  <rect x="8" y="12" width="24" height="16" rx="2" fill="white"/>
  <rect x="10" y="14" width="20" height="12" rx="1" fill="#1e293b"/>
  <path d="M12 16h2v2h-2v-2zm4 0h2v2h-2v-2zm4 0h2v2h-2v-2z" fill="#3b82f6"/>
  <path d="M12 20h8v1h-8v-1zm0 2h6v1h-6v-1zm0 2h10v1h-10v-1z" fill="#64748b"/>
  <circle cx="30" cy="14" r="4" fill="#10b981"/>
  <path d="M28 14l1 1 2-2" stroke="white" stroke-width="1.5" stroke-linecap="round" stroke-linejoin="round"/>
</svg>