<svg width="24" height="24" viewBox="0 0 24 24" fill="none" xmlns="http://www.w3.org/2000/svg">
  <path d="M12 0l1.09 3.36L16 2.24l-1.12 3.36L18 4.72l-2.12 3.04L19 6.64l-3.04 2.12L18.36 8l-3.36 1.09L17.76 12l-3.36-1.12L15.28 14l-3.04-2.12L13.36 15l-2.12-3.04L12 14.36l-1.24-2.4L8.64 15l1.12-3.04L6.72 14l2.12-3.04L6 9.84l3.04-1.84L5.64 8l3.36-1.09L6.24 4.72l3.04 2.12L8 3.36l2.12 3.04L9 2.24l3-1.12L12 0z" fill="#FF9900"/>
  <rect x="4" y="10" width="16" height="8" rx="2" fill="#232F3E"/>
  <path d="M8 13h2v2H8zm4 0h2v2h-2zm4 0h2v2h-2z" fill="#FF9900"/>
</svg>