<svg width="24" height="24" viewBox="0 0 24 24" fill="none" xmlns="http://www.w3.org/2000/svg">
  <path d="M10.68 13.31c-.48 0-.94-.42-.94-.94v-.8c0-.27.22-.49.49-.49s.49.22.49.49v.8c0 .27-.22.49-.49.49zm0-2.4c-.48 0-.94-.42-.94-.94v-.8c0-.27.22-.49.49-.49s.49.22.49.49v.8c0 .27-.22.49-.49.49z" fill="#4285F4"/>
  <path d="M19.35 10.04C18.67 6.59 15.64 4 12 4s-6.67 2.59-7.35 6.04c-.10.52-.10 1.04 0 1.56.68 3.45 3.71 6.04 7.35 6.04s6.67-2.59 7.35-6.04c.10-.52.10-1.04 0-1.56zM12 15.96c-2.2 0-4-1.8-4-4s1.8-4 4-4 4 1.8 4 4-1.8 4-4 4z" fill="#4285F4"/>
  <circle cx="12" cy="12" r="2" fill="white"/>
</svg>