<svg width="24" height="24" viewBox="0 0 24 24" fill="none" xmlns="http://www.w3.org/2000/svg">
  <path d="M23.546 10.93L13.067.452c-.604-.603-1.582-.603-2.188 0L8.708 2.627l2.76 2.76c.645-.215 1.379-.07 1.889.441.516.515.658 1.258.428 1.9l2.658 2.66c.645-.23 1.387-.087 1.9.428.717.717.717 1.88 0 2.598-.719.717-1.881.717-2.6 0-.539-.541-.67-1.337-.396-1.998L12.86 8.955v6.525c.176.086.342.203.488.348.713.717.713 1.880 0 2.598-.719.717-1.881.717-2.6 0-.717-.718-.717-1.881 0-2.598.177-.18.387-.316.617-.406V8.835c-.23-.091-.44-.227-.617-.407-.545-.543-.674-1.336-.396-1.997L8.035 4.014 0 12.049c-.603.604-.603 1.582 0 2.186l10.479 10.479c.604.604 1.582.604 2.186 0L23.546 13.12c.603-.603.603-1.582-.001-2.187" fill="#DE4C36"/>
</svg>