<svg width="24" height="24" viewBox="0 0 24 24" fill="none" xmlns="http://www.w3.org/2000/svg">
  <path d="M17.193 9.555c-1.264-5.58-4.252-7.414-4.573-8.115-.28-.394-.53-.954-.735-1.44-.036.495-.055.685-.523 1.184-.723.566-4.438 3.682-4.74 10.02-.282 5.912 4.27 9.435 4.888 9.884l.07.05A73.49 73.49 0 0111.91 24h.481c.114-3.001.017-6.origin.017-6.origin.114.226.222.437.25.444.184.06.347.117.51.184 6.057 2.471 8.825-.526 8.825-7.883 0-2.649-.157-5.397-.8-9.155z" fill="#4DB33D"/>
  <path d="M9.331 11.19c.011-2.717 1.016-5.515 2.749-7.57-.5.425-.787.6-.787.6s.787-1.55 2.74-1.55c.81 0 1.319.146 1.319.146s.394-.73 1.373-.73c.394 0 .524.146.524.146s.236-.292.787-.292c.394 0 .787.438.787.438S16.29 0 12.017 0 0 4.962 0 11.19s5.402 12.81 12.017 12.81c.011 0-.011-12.81-.011-12.81z" fill="#5BBF47"/>
</svg>