<svg width="24" height="24" viewBox="0 0 24 24" fill="none" xmlns="http://www.w3.org/2000/svg">
  <path d="M12 0C5.374 0 0 5.373 0 12s5.374 12 12 12 12-5.373 12-12S18.626 0 12 0zm.568 18.96c-.185.04-.355.06-.568.06-.213 0-.383-.02-.568-.06v-4.032h1.136v4.032zm0-5.632h-1.136v-.896c0-.44.126-.78.378-1.016.252-.237.588-.355 1.008-.355.42 0 .756.118 1.008.355.252.236.378.576.378 1.016v.896h-1.136v-.896c0-.186-.063-.279-.189-.279-.126 0-.189.093-.189.279v.896zm4.704.896c0 1.12-.42 2.016-1.26 2.688-.84.672-1.974 1.008-3.402 1.008s-2.562-.336-3.402-1.008c-.84-.672-1.26-1.568-1.26-2.688v-1.344c0-1.12.42-2.016 1.26-2.688.84-.672 1.974-1.008 3.402-1.008s2.562.336 3.402 1.008c.84.672 1.26 1.568 1.26 2.688v1.344z" fill="#F29111"/>
</svg>