<svg width="24" height="24" viewBox="0 0 24 24" fill="none" xmlns="http://www.w3.org/2000/svg">
  <path d="M1.125 0C.502 0 0 .502 0 1.125v21.75C0 23.498.502 24 1.125 24h21.75c.623 0 1.125-.502 1.125-1.125V1.125C24 .502 23.498 0 22.875 0H1.125zm17.363 9.75c.612 0 1.154.037 1.627.111a6.38 6.38 0 0 1 1.306.34v2.458a3.95 3.95 0 0 0-.643-.361 2.78 2.78 0 0 0-.717-.26 5.11 5.11 0 0 0-.426-.1 4.08 4.08 0 0 0-.567-.027c-.415 0-.879.044-1.39.111-.51.066-.986.227-1.427.482-.441.255-.824.605-1.15 1.05-.325.444-.487.999-.487 1.665 0 .814.246 1.448.739 1.901.493.453 1.187.68 2.081.68.87 0 1.628-.229 2.274-.687v2.458c-.226.066-.58.148-1.061.246-.48.098-1.061.147-1.743.147l-.018.002c-1.334 0-2.571-.337-3.71-1.008a7.83 7.83 0 0 1-2.958-2.888C10.04 15.114 9.5 13.896 9.5 12.5c0-1.31.37-2.514 1.111-3.612a8.068 8.068 0 0 1 2.958-2.888c1.139-.671 2.376-1.008 3.71-1.008zM12 7.006c-.315 0-.624.007-.926.02-.302.014-.609.035-.921.063-.312.027-.624.063-.935.107-.311.043-.624.096-.935.156v8.695c0 .569.21 1.04.632 1.414.421.374.963.561 1.626.561.759 0 1.316-.181 1.673-.544.357-.363.535-.544.535-1.071V7.006H12zm-4.5 0c-.315 0-.624.007-.926.02-.302.014-.609.035-.921.063-.312.027-.624.063-.935.107-.311.043-.624.096-.935.156v5.983c0 1.424.466 2.555 1.398 3.395.932.84 2.211 1.26 3.837 1.26.979 0 1.8-.136 2.466-.408a5.417 5.417 0 0 0 1.67-1.097c.441-.455.784-.973 1.028-1.554.245-.581.367-1.165.367-1.752V7.006H7.5z" fill="#3178C6"/>
</svg>